<svg width="544.731" height="511.998" viewBox="0 0 144.127 135.466" xmlns="http://www.w3.org/2000/svg"><defs><clipPath clipPathUnits="userSpaceOnUse" id="b"><path style="fill:none;stroke:#000;stroke-width:.264583px;stroke-linecap:butt;stroke-linejoin:miter;stroke-opacity:1" d="m60.221 107.617 2.506 87.91 26.19 10.242 15.4-2.751-1.01-45.433-2.193-53.45-17.952-7.499-17.986 5.837z"/></clipPath><clipPath clipPathUnits="userSpaceOnUse" id="c"><path style="fill:none;stroke:#000;stroke-width:.264583px;stroke-linecap:butt;stroke-linejoin:miter;stroke-opacity:1" d="m28.992 107.857 2.506 87.91 26.19 10.242 15.4-2.752-1.01-45.432-2.193-53.45-17.952-7.499-17.986 5.836z"/></clipPath><clipPath clipPathUnits="userSpaceOnUse" id="a"><path style="fill:none;stroke:#000;stroke-width:.264583px;stroke-linecap:butt;stroke-linejoin:miter;stroke-opacity:1" d="M77.46 98.169 55.934 69.912l10.103-9.61 34.442-15.892 13.6 1.983 51.115 27.99-27.244 30.525-1.322 57.87-10.222 39.192-33.7 4.688-11.03-10.842-1.872-30.092 1.866-48.135-2.804-16.265z"/></clipPath></defs><path style="fill:#fff;stroke-width:.264583;fill-opacity:1" d="M15.345 194.295c-2.763-.678-5.216-2.73-6.468-5.411l-.74-1.588v-48.948l.74-1.587c.964-2.067 2.763-3.874 4.786-4.81l1.617-.746h15.081l1.65.762c1.994.92 3.792 2.75 4.785 4.869l.71 1.512v48.948l-.705 1.502a10.032 10.032 0 0 1-4.68 4.782l-1.746.86-7.018.05c-3.86.026-7.466-.061-8.012-.195zm40.217 0c-2.763-.678-5.217-2.73-6.468-5.411l-.741-1.588v-70.114l.74-1.588c.965-2.066 2.764-3.874 4.787-4.809l1.617-.747h15.081l1.65.762c1.994.921 3.792 2.75 4.785 4.869l.709 1.513v70.114l-.704 1.502a10.032 10.032 0 0 1-4.681 4.782l-1.746.86-7.018.05c-3.86.026-7.465-.061-8.011-.195zm40.217 0c-2.763-.678-5.217-2.73-6.468-5.411l-.741-1.588-.07-45.045-.068-45.045h-3.427c-7.468 0-11.498-4.874-8.38-10.133 1.22-2.056 24.126-27.344 25.065-27.671 2.838-.99 2.754-1.061 15.914 13.615 13.749 15.333 13.877 15.525 12.805 19.212-1.052 3.62-3.48 4.977-8.905 4.977h-3.426l-.07 45.045-.07 45.045-.703 1.502a10.032 10.032 0 0 1-4.681 4.782l-1.746.86-7.018.05c-3.86.026-7.465-.061-8.011-.195z" clip-path="url(#a)" transform="translate(13.316 -59.028)"/><path style="fill:#fff;stroke-width:.264583;fill-opacity:1" d="M34.734 194.088c-2.763-.678-5.216-2.73-6.467-5.411l-.742-1.588v-48.947l.741-1.588c.964-2.066 2.763-3.874 4.787-4.81l1.616-.746H49.75l1.65.762c1.995.92 3.792 2.75 4.785 4.869l.71 1.513v48.947l-.705 1.502a10.032 10.032 0 0 1-4.68 4.782l-1.746.86-7.018.05c-3.86.026-7.465-.061-8.012-.195zm40.217 0c-2.763-.678-5.217-2.73-6.468-5.411l-.74-1.588v-70.114l.74-1.588c.964-2.066 2.763-3.874 4.786-4.809l1.617-.747h15.081l1.65.762c1.994.921 3.792 2.75 4.785 4.869l.709 1.513v70.114l-.704 1.502a10.032 10.032 0 0 1-4.681 4.782l-1.746.86-7.018.05c-3.86.026-7.465-.061-8.011-.195zm40.217 0c-2.763-.678-5.217-2.73-6.468-5.411l-.741-1.588-.07-45.045L107.822 97h-3.427c-7.468 0-11.498-4.874-8.379-10.133 1.22-2.055 24.125-27.344 25.064-27.671 2.838-.99 2.754-1.061 15.914 13.615 13.749 15.333 13.877 15.526 12.805 19.212-1.052 3.62-3.48 4.977-8.905 4.977h-3.426l-.07 45.045-.07 45.045-.703 1.502a10.032 10.032 0 0 1-4.681 4.782l-1.746.86-7.018.05c-3.86.026-7.465-.061-8.011-.195z" clip-path="url(#b)" transform="translate(-19.302 -58.821)"/><path style="fill:#fff;stroke-width:.264583;fill-opacity:1" d="M43.949 185.202c-2.763-.678-5.217-2.73-6.468-5.411l-.741-1.588v-48.948l.74-1.587c.965-2.067 2.764-3.874 4.787-4.81l1.617-.746h15.08l1.65.762c1.995.92 3.793 2.75 4.786 4.868l.709 1.513v48.948l-.704 1.502a10.032 10.032 0 0 1-4.681 4.782l-1.746.86-7.018.05c-3.86.026-7.465-.061-8.011-.195zm40.216 0c-2.763-.678-5.216-2.73-6.467-5.411l-.741-1.588V108.09l.74-1.588c.964-2.066 2.764-3.874 4.787-4.809l1.616-.747h15.082l1.649.762c1.995.921 3.792 2.75 4.785 4.869l.71 1.513v70.114l-.705 1.502a10.032 10.032 0 0 1-4.68 4.782l-1.746.86-7.018.05c-3.86.026-7.465-.061-8.012-.195zm40.217 0c-2.763-.678-5.216-2.73-6.468-5.411l-.74-1.588-.07-45.045-.069-45.045h-3.427c-7.468 0-11.498-4.874-8.379-10.133 1.22-2.056 24.126-27.344 25.065-27.671 2.838-.99 2.754-1.061 15.914 13.615 13.748 15.333 13.876 15.525 12.805 19.212-1.053 3.62-3.48 4.977-8.905 4.977h-3.426l-.07 45.045-.07 45.045-.704 1.502a10.032 10.032 0 0 1-4.68 4.782l-1.746.86-7.019.05c-3.86.026-7.465-.061-8.01-.195z" clip-path="url(#c)" transform="translate(-36.74 -50.119)"/></svg>