<?xml version="1.0" encoding="UTF-8" standalone="no"?>
<!-- Created with Inkscape (http://www.inkscape.org/) -->

<svg
   width="144.12663mm"
   height="135.46616mm"
   viewBox="0 0 144.12662 135.46616"
   version="1.1"
   id="svg82249"
   inkscape:version="1.1 (1:1.1+202105261517+ce6663b3b7)"
   sodipodi:docname="logo.svg"
   xmlns:inkscape="http://www.inkscape.org/namespaces/inkscape"
   xmlns:sodipodi="http://sodipodi.sourceforge.net/DTD/sodipodi-0.dtd"
   xmlns="http://www.w3.org/2000/svg"
   xmlns:svg="http://www.w3.org/2000/svg">
  <sodipodi:namedview
     id="namedview82251"
     pagecolor="#ffffff"
     bordercolor="#666666"
     borderopacity="1.0"
     inkscape:pageshadow="2"
     inkscape:pageopacity="0.0"
     inkscape:pagecheckerboard="0"
     inkscape:document-units="mm"
     showgrid="true"
     fit-margin-top="0"
     fit-margin-left="0"
     fit-margin-right="0"
     fit-margin-bottom="0"
     inkscape:zoom="0.35355339"
     inkscape:cx="197.9899"
     inkscape:cy="-26.870058"
     inkscape:window-width="1920"
     inkscape:window-height="1009"
     inkscape:window-x="0"
     inkscape:window-y="34"
     inkscape:window-maximized="1"
     inkscape:current-layer="layer1"
     showborder="true">
    <inkscape:grid
       type="xygrid"
       id="grid3442"
       originx="15.896122"
       originy="-0.054511664" />
  </sodipodi:namedview>
  <defs
     id="defs82246">
    <clipPath
       clipPathUnits="userSpaceOnUse"
       id="clipPath2999">
      <path
         style="fill:none;stroke:#000000;stroke-width:0.264583px;stroke-linecap:butt;stroke-linejoin:miter;stroke-opacity:1"
         d="m 60.221296,107.61741 2.50544,87.90957 26.190358,10.24185 15.399096,-2.75118 -1.00987,-45.43283 -2.19188,-53.44942 -17.952515,-7.498922 -17.985748,5.836022 z"
         id="path3001" />
    </clipPath>
    <clipPath
       clipPathUnits="userSpaceOnUse"
       id="clipPath2999-6">
      <path
         style="fill:none;stroke:#000000;stroke-width:0.264583px;stroke-linecap:butt;stroke-linejoin:miter;stroke-opacity:1"
         d="m 60.221296,107.61741 2.50544,87.90957 26.190358,10.24185 15.399096,-2.75118 -1.00987,-45.43283 -2.19188,-53.44942 -17.952515,-7.498922 -17.985748,5.836022 z"
         id="path3001-5" />
    </clipPath>
    <clipPath
       clipPathUnits="userSpaceOnUse"
       id="clipPath3040-7">
      <path
         style="fill:none;stroke:#000000;stroke-width:0.264583px;stroke-linecap:butt;stroke-linejoin:miter;stroke-opacity:1"
         d="m 28.992196,107.85716 2.50544,87.90957 26.190357,10.24185 15.399096,-2.75118 -1.009869,-45.43283 -2.19188,-53.44942 -17.952515,-7.49892 -17.985748,5.83602 z"
         id="path3042-6" />
    </clipPath>
    <clipPath
       clipPathUnits="userSpaceOnUse"
       id="clipPath2999-3">
      <path
         style="fill:none;stroke:#000000;stroke-width:0.264583px;stroke-linecap:butt;stroke-linejoin:miter;stroke-opacity:1"
         d="m 60.221296,107.61741 2.50544,87.90957 26.190358,10.24185 15.399096,-2.75118 -1.00987,-45.43283 -2.19188,-53.44942 -17.952515,-7.498922 -17.985748,5.836022 z"
         id="path3001-9" />
    </clipPath>
    <clipPath
       clipPathUnits="userSpaceOnUse"
       id="clipPath3040-7-4">
      <path
         style="fill:none;stroke:#000000;stroke-width:0.264583px;stroke-linecap:butt;stroke-linejoin:miter;stroke-opacity:1"
         d="m 28.992196,107.85716 2.50544,87.90957 26.190357,10.24185 15.399096,-2.75118 -1.009869,-45.43283 -2.19188,-53.44942 -17.952515,-7.49892 -17.985748,5.83602 z"
         id="path3042-6-8" />
    </clipPath>
    <clipPath
       clipPathUnits="userSpaceOnUse"
       id="clipPath3438">
      <path
         style="fill:none;stroke:#000000;stroke-width:0.264583px;stroke-linecap:butt;stroke-linejoin:miter;stroke-opacity:1"
         d="M 77.460729,98.16891 55.93317,69.9119 66.036084,60.302264 100.47769,44.409861 l 13.60067,1.982907 51.11499,27.990721 -27.24482,30.524421 -1.32171,57.87061 -10.2215,39.19139 -33.700755,4.68824 -11.028651,-10.8418 -1.873157,-30.09206 1.866164,-48.13577 -2.804366,-16.26447 z"
         id="path3440" />
    </clipPath>
  </defs>
  <g
     inkscape:label="Layer 1"
     inkscape:groupmode="layer"
     id="layer1"
     transform="translate(-11.455391,-58.773907)">
    <path
       style="fill:#236ee7;stroke-width:0.264583;fill-opacity:1"
       d="m 15.345189,194.29467 c -2.76292,-0.67763 -5.21653,-2.73026 -6.4677805,-5.4108 l -0.74103,-1.5875 v -24.47396 -24.47395 l 0.7407,-1.5875 c 0.9642,-2.06651 2.7632705,-3.87413 4.7863405,-4.80909 l 1.61671,-0.74716 h 7.54062 7.54062 l 1.6495,0.76187 c 1.99458,0.92126 3.79214,2.75031 4.78516,4.86897 l 0.70909,1.51291 v 24.47395 24.47396 l -0.7039,1.50155 c -0.98505,2.1013 -2.61136,3.76282 -4.68097,4.78232 l -1.74558,0.85988 -7.0181,0.0491 c -3.85996,0.027 -7.46508,-0.0605 -8.01138,-0.19453 z m 40.21667,0 c -2.76293,-0.67763 -5.21654,-2.73026 -6.46779,-5.4108 l -0.74103,-1.5875 v -35.05729 -35.05729 l 0.7407,-1.5875 c 0.9642,-2.0665 2.76328,-3.87413 4.78634,-4.80909 l 1.61671,-0.74716 h 7.54062 7.54063 l 1.649485,0.76188 c 1.99458,0.92126 3.79214,2.75031 4.78516,4.86897 l 0.7091,1.5129 v 35.05729 35.05729 l -0.7039,1.50155 c -0.98505,2.1013 -2.61136,3.76282 -4.68098,4.78232 l -1.745565,0.85988 -7.01811,0.0491 c -3.85996,0.027 -7.46508,-0.0605 -8.01137,-0.19453 z m 40.216685,0 c -2.76293,-0.67763 -5.21654,-2.73026 -6.46779,-5.4108 l -0.74103,-1.5875 -0.0691,-45.04531 -0.0691,-45.045311 h -3.42666 c -7.46794,0 -11.49808,-4.873736 -8.37892,-10.13279 1.21914,-2.05553 24.125056,-27.343768 25.064396,-27.671229 2.83781,-0.989264 2.75395,-1.061014 15.91405,13.615675 13.74831,15.332693 13.8765,15.525024 12.80475,19.211714 -1.05231,3.61981 -3.48012,4.97663 -8.90491,4.97663 h -3.42593 l -0.0699,45.045311 -0.0699,45.04531 -0.7039,1.50155 c -0.98505,2.1013 -2.61136,3.76282 -4.68098,4.78232 l -1.74557,0.85988 -7.01811,0.0491 c -3.859966,0.027 -7.465076,-0.0605 -8.011376,-0.19453 z"
       id="path2586"
       clip-path="url(#clipPath3438)"
       transform="translate(24.771375,-0.25405516)" />
    <path
       style="fill:#236ee7;stroke-width:0.264583;fill-opacity:1"
       d="m 34.734281,194.08775 c -2.76292,-0.67763 -5.21653,-2.73026 -6.46778,-5.4108 l -0.74103,-1.5875 v -24.47396 -24.47395 l 0.7407,-1.5875 c 0.9642,-2.06651 2.76327,-3.87413 4.78634,-4.80909 l 1.61671,-0.74716 h 7.54062 7.54062 l 1.6495,0.76187 c 1.99458,0.92126 3.79214,2.75031 4.78516,4.86897 l 0.70909,1.51291 v 24.47395 24.47396 l -0.7039,1.50155 c -0.98505,2.1013 -2.61136,3.76282 -4.68097,4.78232 l -1.74558,0.85988 -7.0181,0.0491 c -3.85996,0.027 -7.46508,-0.0605 -8.01138,-0.19453 z m 40.21667,0 c -2.76293,-0.67763 -5.21654,-2.73026 -6.46779,-5.4108 l -0.74103,-1.5875 v -35.05729 -35.05729 l 0.7407,-1.5875 c 0.9642,-2.0665 2.76328,-3.87413 4.78634,-4.80909 l 1.61671,-0.74716 h 7.54062 7.54063 l 1.64949,0.76188 c 1.99458,0.92126 3.79214,2.75031 4.78516,4.86897 l 0.7091,1.5129 v 35.05729 35.05729 l -0.7039,1.50155 c -0.98505,2.1013 -2.61136,3.76282 -4.68098,4.78232 l -1.74557,0.85988 -7.01811,0.0491 c -3.85996,0.027 -7.46508,-0.0605 -8.01137,-0.19453 z m 40.216679,0 c -2.76293,-0.67763 -5.21654,-2.73026 -6.46779,-5.4108 l -0.74103,-1.5875 -0.0691,-45.04531 -0.0691,-45.045309 h -3.42666 c -7.467929,0 -11.498069,-4.873736 -8.378909,-10.13279 1.21914,-2.05553 24.125039,-27.343768 25.064389,-27.671229 2.83781,-0.989264 2.75395,-1.061014 15.91405,13.615675 13.74831,15.332693 13.8765,15.525024 12.80475,19.211714 -1.05231,3.61981 -3.48013,4.97663 -8.90492,4.97663 h -3.42593 l -0.0699,45.045309 -0.0699,45.04531 -0.7039,1.50155 c -0.98505,2.1013 -2.61136,3.76282 -4.68098,4.78232 l -1.74557,0.85988 -7.01811,0.0491 c -3.85996,0.027 -7.46507,-0.0605 -8.01137,-0.19453 z"
       id="path2586-7"
       clip-path="url(#clipPath2999-3)"
       transform="translate(-7.8468641,-0.04713783)" />
    <path
       style="fill:#236ee7;stroke-width:0.264583;fill-opacity:1"
       d="m 43.948695,185.20159 c -2.76292,-0.67763 -5.21653,-2.73026 -6.46778,-5.4108 l -0.74103,-1.5875 v -24.47396 -24.47395 l 0.7407,-1.5875 c 0.9642,-2.06651 2.76327,-3.87413 4.78634,-4.80909 l 1.61671,-0.74716 h 7.54062 7.54062 l 1.6495,0.76187 c 1.99458,0.92126 3.79214,2.75031 4.78516,4.86897 l 0.70909,1.51291 v 24.47395 24.47396 l -0.7039,1.50155 c -0.98505,2.1013 -2.61136,3.76282 -4.68097,4.78232 l -1.74558,0.85988 -7.0181,0.0491 c -3.85996,0.027 -7.46508,-0.0605 -8.01138,-0.19453 z m 40.21667,0 c -2.76293,-0.67763 -5.21654,-2.73026 -6.46779,-5.4108 l -0.74103,-1.5875 V 143.146 108.08871 l 0.7407,-1.5875 c 0.9642,-2.0665 2.76328,-3.87413 4.78634,-4.80909 l 1.61671,-0.74716 h 7.54062 7.54063 l 1.649485,0.76188 c 1.99458,0.92126 3.79214,2.75031 4.78516,4.86897 l 0.7091,1.5129 v 35.05729 35.05729 l -0.7039,1.50155 c -0.98505,2.1013 -2.61136,3.76282 -4.68098,4.78232 l -1.745565,0.85988 -7.01811,0.0491 c -3.85996,0.027 -7.46508,-0.0605 -8.01137,-0.19453 z m 40.216685,0 c -2.76293,-0.67763 -5.21654,-2.73026 -6.46779,-5.4108 l -0.74103,-1.5875 -0.0691,-45.04531 -0.0691,-45.045313 h -3.42666 c -7.46794,0 -11.49808,-4.873736 -8.37892,-10.13279 1.21914,-2.05553 24.12505,-27.343768 25.0644,-27.671229 2.83781,-0.989264 2.75395,-1.061014 15.91405,13.615675 13.74831,15.332693 13.8765,15.525024 12.80475,19.211714 -1.05231,3.61981 -3.48013,4.97663 -8.90492,4.97663 h -3.42593 l -0.0699,45.045313 -0.0699,45.04531 -0.7039,1.50155 c -0.98505,2.1013 -2.61136,3.76282 -4.68098,4.78232 l -1.74557,0.85988 -7.01811,0.0491 c -3.85996,0.027 -7.46507,-0.0605 -8.01137,-0.19453 z"
       id="path2586-73"
       clip-path="url(#clipPath3040-7-4)"
       transform="translate(-25.284494,8.6553836)" />
  </g>
</svg>
