<svg xmlns="http://www.w3.org/2000/svg" xmlns:xlink="http://www.w3.org/1999/xlink" viewBox="0 0 500 500"><defs><clipPath id="freepik--clip-path--inject-78"><path d="M383.22,100C357,69.1,335.6,109.34,335.6,109.34s.76,1.58,2.22,4.07c6.31-9.51,23.39-29.89,42.19-6.14,11.72,14.81,13,34.29,12.66,44.9,3,.86,4.86,1.28,4.86,1.28S401.92,122.1,383.22,100Z" style="fill:none"></path></clipPath></defs><g id="freepik--background-complete--inject-78"><rect y="382.4" width="500" height="0.25" style="fill:#ebebeb"></rect><rect x="416.78" y="398.49" width="33.12" height="0.25" style="fill:#ebebeb"></rect><rect x="292" y="401.21" width="39.22" height="0.25" style="fill:#ebebeb"></rect><rect x="358.76" y="389.21" width="57.02" height="0.25" style="fill:#ebebeb"></rect><rect x="174.48" y="390.89" width="68.63" height="0.25" style="fill:#ebebeb"></rect><rect x="252.01" y="390.89" width="6.33" height="0.25" style="fill:#ebebeb"></rect><rect x="98.33" y="395.11" width="126.81" height="0.25" style="fill:#ebebeb"></rect><path d="M237,337.8H43.91a5.71,5.71,0,0,1-5.7-5.71V60.66A5.71,5.71,0,0,1,43.91,55H237a5.71,5.71,0,0,1,5.71,5.71V332.09A5.71,5.71,0,0,1,237,337.8ZM43.91,55.2a5.46,5.46,0,0,0-5.45,5.46V332.09a5.46,5.46,0,0,0,5.45,5.46H237a5.47,5.47,0,0,0,5.46-5.46V60.66A5.47,5.47,0,0,0,237,55.2Z" style="fill:#ebebeb"></path><path d="M453.31,337.8H260.21a5.72,5.72,0,0,1-5.71-5.71V60.66A5.72,5.72,0,0,1,260.21,55h193.1A5.71,5.71,0,0,1,459,60.66V332.09A5.71,5.71,0,0,1,453.31,337.8ZM260.21,55.2a5.47,5.47,0,0,0-5.46,5.46V332.09a5.47,5.47,0,0,0,5.46,5.46h193.1a5.47,5.47,0,0,0,5.46-5.46V60.66a5.47,5.47,0,0,0-5.46-5.46Z" style="fill:#ebebeb"></path><circle cx="211.53" cy="175.75" r="25.59" style="fill:#fafafa"></circle><path d="M296.87,79.26a13.64,13.64,0,0,1,3.61.69c.28-2.4,3.17-3.87,8.3-3.7a36.79,36.79,0,0,1,8.41,1.37c-1.78-3.61,0-6.17,5.05-6.17a26.9,26.9,0,0,1,9.68,2.21c.73-2.42,3.48-3.91,8.1-3.91,7.36,0,17.32,3.78,24.93,9.1,3.66.09,10.7,2.19,11.89,4.07H295.5l-.39-.35C293.13,80.65,293.92,79.16,296.87,79.26Z" style="fill:#e6e6e6"></path><path d="M161.73,188.58a15,15,0,0,1,4,.76c.31-2.65,3.5-4.27,9.17-4.09a40.54,40.54,0,0,1,9.31,1.52c-2-4,0-6.82,5.58-6.82a29.65,29.65,0,0,1,10.7,2.44c.81-2.68,3.85-4.33,9-4.33,8.15,0,19.16,4.19,27.57,10.06,4.05.11,11.83,2.43,13.15,4.51H160.21c-.15-.13-.29-.25-.43-.39C157.59,190.12,158.46,188.47,161.73,188.58Z" style="fill:#f5f5f5"></path><path d="M57.66,108.52a20.23,20.23,0,0,1,5.81,1.28c-1-4.46,2.4-7.19,10.16-6.89a53.87,53.87,0,0,1,13.44,2.57h0C82.21,98.76,83.38,94,90.9,94c4.28,0,9.91,1.54,15.81,4.11-.39-4.52,2.83-7.29,9.75-7.29,8.57,0,20.87,4.26,32.8,10.82.32-1.91,2.12-3,5.43-3,4.58,0,11,2.15,17.41,5.53.41,0,.84,0,1.3,0,8.11.56,19.52,4.93,26.13,9.92H56.38C52.93,110.82,53.41,108.36,57.66,108.52Z" style="fill:#f0f0f0"></path><path d="M323.41,182.37a8.18,8.18,0,0,1,2.4.53c-.42-1.84,1-3,4.19-2.84a22.08,22.08,0,0,1,5.54,1.06h0c-2-2.78-1.52-4.74,1.58-4.74a17.6,17.6,0,0,1,6.52,1.7c-.16-1.87,1.17-3,4-3,3.53,0,8.61,1.76,13.52,4.46.14-.79.88-1.25,2.24-1.25a17.26,17.26,0,0,1,7.19,2.28l.53,0a23.45,23.45,0,0,1,10.77,4.09h-59C321.47,183.32,321.66,182.3,323.41,182.37Z" style="fill:#fafafa"></path><path d="M454.49,227.1c5.69-1.42,9.24-4.36,13.26.6-5.6-3.83-13.06,1.77-13.06,1.77s-8.3-4.24-13.16.5C444.64,224.4,448.64,226.68,454.49,227.1Z" style="fill:#e0e0e0"></path><path d="M428.26,243.41c3.61-.91,5.87-2.77,8.42.38-3.56-2.44-8.29,1.12-8.29,1.12s-5.27-2.69-8.36.32C422,241.69,424.54,243.14,428.26,243.41Z" style="fill:#e0e0e0"></path><path d="M69.63,73.94c4.76-1.19,7.72-3.64,11.08.5C76,71.24,69.8,75.92,69.8,75.92s-6.93-3.54-11,.42C61.41,71.68,64.74,73.59,69.63,73.94Z" style="fill:#e0e0e0"></path><path d="M350.43,352.67c-61.41,0-110.26,29.73-110.26,29.73H467.75S425.67,352.67,350.43,352.67Z" style="fill:#e6e6e6"></path><path d="M175.5,342.33C88.9,342.33,20,382.4,20,382.4H379.52S262.1,342.33,175.5,342.33Z" style="fill:#f0f0f0"></path><rect x="177.09" y="334.93" width="75.68" height="13.78" transform="matrix(0.99, 0.15, -0.15, 0.99, 51.91, -27.59)" style="fill:#e6e6e6"></rect><rect x="184.56" y="325.27" width="64.17" height="9.78" transform="translate(50.24 -27.96) rotate(8.35)" style="fill:#e6e6e6"></rect><path d="M226.7,261.62h0a25.41,25.41,0,0,0-28.83,21.45l-5.66,38.56L242.5,329l5.66-38.56A25.42,25.42,0,0,0,226.7,261.62Z" style="fill:#f5f5f5"></path><circle cx="224.67" cy="275.47" r="5.08" style="fill:#e6e6e6"></circle><path d="M240.86,304.88h0a1.53,1.53,0,0,1-1.3-1.75l1.31-8.94a.92.92,0,0,0-.77-1l-2.48-.37a.93.93,0,0,0-1,.78l-1.31,8.94a1.53,1.53,0,0,1-1.75,1.3h0a2.3,2.3,0,0,0-2.6,1.94l-4.19,28.53a2.3,2.3,0,0,0,1.94,2.6l7.34,1.07a2.29,2.29,0,0,0,2.6-1.93l4.18-28.53A2.29,2.29,0,0,0,240.86,304.88Z" style="fill:#fff"></path><path d="M239.35,293l-1-.15c.45-3.07,2.63-8.14,6-9.81l.44.9C241.79,285.47,239.76,290.27,239.35,293Z" style="fill:#e0e0e0"></path><path d="M246.91,282.49c-1,2.33-2.21,2.78-3.31,2.32s-1.63-1.66-.65-4,4.2-4.45,4.2-4.45S247.89,280.15,246.91,282.49Z" style="fill:#e0e0e0"></path><path d="M245,287.28c-1.64.47-2.41,0-2.63-.76s.19-1.56,1.83-2a8.81,8.81,0,0,1,4.11.33A8.86,8.86,0,0,1,245,287.28Z" style="fill:#e0e0e0"></path><rect x="384.59" y="357.85" width="39.83" height="7.25" transform="translate(13.72 -14.79) rotate(2.13)" style="fill:#f5f5f5"></rect><rect x="387.85" y="352.7" width="33.77" height="5.15" transform="translate(13.49 -14.8) rotate(2.13)" style="fill:#f5f5f5"></rect><path d="M406.09,318.84h0a13.38,13.38,0,0,0-13.86,12.87l-.77,20.5,26.73,1,.77-20.5A13.38,13.38,0,0,0,406.09,318.84Z" style="fill:#ebebeb"></path><path d="M77.16,234.74C68,218.93,49,228.13,58.44,250.54c3.09,7.35,6.4,18.22,9.62,30.8-7.54,9.75-15.55,8-19.44-13.21-4.1-22.36-17.54-7.08-11.62,8.26,5.74,14.89,15,27.92,33.48,14.76A695.37,695.37,0,0,1,83.72,365s5.44.64,13.1-4.5C100.23,348.44,86.32,250.56,77.16,234.74Z" style="fill:#f0f0f0"></path><path d="M381.92,328.84c-1.22,6.64-3.73,7.19-6.09,4.14a76.55,76.55,0,0,1,3-9.66c3-7-3-9.9-5.86-4.95-1.34,2.32-3,10.24-4.29,18.41-3.66-1.66-3.17-2.88-2-8.45,1.25-6.16-6.07-2.5-5.48,3.75.49,5.27,5.12,7.28,7.06,7.73-1.2,8.3-1.92,16.18-1.42,18a6.73,6.73,0,0,0,4.11,1.41,217.4,217.4,0,0,1,4.15-23.15c5.8,4.12,8.69,0,10.49-4.63S383.21,321.83,381.92,328.84Z" style="fill:#e6e6e6"></path></g><g id="freepik--Shadow--inject-78"><ellipse id="freepik--path--inject-78" cx="250" cy="416.24" rx="193.89" ry="11.32" style="fill:#f5f5f5"></ellipse></g><g id="freepik--character-1--inject-78"><path d="M176.21,159.81l-3.9-11.35,14.38-.68s2.28,10.7-3.21,12.84Z" style="fill:#b55b52"></path><path d="M177.69,137.21l5.08.61a4.17,4.17,0,0,1,3.66,4l.26,6-14.38.68.75-7.53A4.16,4.16,0,0,1,177.69,137.21Z" style="fill:#b55b52"></path><path d="M131.72,172.47c.23.14.68.39,1,.58l1.18.61c.8.41,1.62.79,2.44,1.18,1.64.78,3.33,1.47,5,2.17a105,105,0,0,0,10.27,3.58q2.58.74,5.16,1.37c1.73.38,3.44.72,5.14,1s3.38.51,5,.62,3.24.15,4.78.11l-7.29,3.18a20.67,20.67,0,0,0,3.78-6.16,36.24,36.24,0,0,0,1.49-4.16c.44-1.46.87-3,1.2-4.51s.61-3.13.86-4.73.4-3.24.55-4.88.2-3.28.24-4.92l0-2.45-.05-1.19,0-.58a1.94,1.94,0,0,0-.06-.45l26.05,1.77c-.06.4-.11.61-.17.9l-.16.77-.32,1.51c-.22,1-.43,2-.67,2.94-.43,2-.91,3.87-1.4,5.8-1,3.85-2.05,7.7-3.35,11.56a87.8,87.8,0,0,1-4.7,11.71,54.89,54.89,0,0,1-3.39,6,39.71,39.71,0,0,1-4.71,5.93l-.06.06a10.45,10.45,0,0,1-7.24,3.12,90.65,90.65,0,0,1-13.51-.92c-4.32-.64-8.5-1.47-12.61-2.42s-8.14-2-12.13-3.22c-2-.57-4-1.21-6-1.82l-3-1-1.53-.5c-.53-.18-1-.32-1.65-.57Z"></path><polygon points="134.44 387.86 133.86 405.69 144.46 405.39 146.55 388.24 134.44 387.86" style="fill:#b55b52"></polygon><path d="M134.43,387.87l-.32,9.81a57.55,57.55,0,0,0,11.29,0l1.15-9.42Z" style="opacity:0.2"></path><polygon points="204.37 387.42 212.86 403.1 221.87 397.5 215.02 381.63 204.37 387.42" style="fill:#b55b52"></polygon><path d="M204.37,387.43l4.67,8.63a57.92,57.92,0,0,0,9.75-5.71L215,381.64Z" style="opacity:0.2"></path><path d="M212.14,399.69l8.67-4a2.81,2.81,0,0,1,3,.38c3.66,3.07,8.95,2.43,11.54,2a4.19,4.19,0,0,1,4.47,2.19,5,5,0,0,1,.36,1L216.8,412a2.28,2.28,0,0,1-3-1.19c-1.06-2.51-1.61-4-3-7.37A2.87,2.87,0,0,1,212.14,399.69Z" style="fill:#263238"></path><path d="M169.94,329.67c-12.37-20.14-34.15-41.81-33.1-64.38l41-11.4s17.82,50.68,23.49,70.67c5.89,20.78,17.48,62.14,17.48,62.14-4,3.5-8.27,6.15-13,6.8C205.88,393.5,174.43,353.38,169.94,329.67Z" style="fill:#263238"></path><path d="M165.9,323.47c-6.18-9.07-13.58-18.42-19.36-28C153.27,291.65,165.52,303.27,165.9,323.47Z" style="opacity:0.2"></path><path d="M129.42,338.58c-7.27-21.33-26.68-51.95-22.24-64L151.45,261s10.15,54.63,11.47,75.9c.94,15.28-15.91,58-15.91,58-4.6-.13-11.19.08-14.39-.84C132.62,394.1,129.42,364.45,129.42,338.58Z" style="fill:#263238"></path><path d="M136.4,391.47a.92.92,0,0,1-.93-.93.93.93,0,0,1,.27-.66,1,1,0,0,1,1.32,0,1,1,0,0,1,.27.66,1,1,0,0,1-.27.66A.91.91,0,0,1,136.4,391.47Z" style="fill:#fff"></path><path d="M135.29,385.87h0a.93.93,0,0,1,.9-1h0a.93.93,0,0,1,1,.9h0a.93.93,0,0,1-.9,1h0A.92.92,0,0,1,135.29,385.87Zm-.15-4.71a.93.93,0,0,1,.9-1h0a.94.94,0,0,1,1,.91h0a.94.94,0,0,1-.91,1h0A.92.92,0,0,1,135.14,381.16Zm-.13-4.71a.93.93,0,0,1,.91-.95h0a.92.92,0,0,1,1,.91h0a.92.92,0,0,1-.91.95h0A.93.93,0,0,1,135,376.45Zm-.1-4.71a.93.93,0,0,1,.91-.95h0a.93.93,0,0,1,1,.91h0a.93.93,0,0,1-.91.95h0A.92.92,0,0,1,134.91,371.74Zm-.08-4.71h0a.93.93,0,0,1,.92-.95h0a.93.93,0,0,1,.94.92h0a.93.93,0,0,1-.92.95h0A.93.93,0,0,1,134.83,367Zm-.06-4.72h0a.94.94,0,0,1,.93-.94h0a.94.94,0,0,1,.94.93h0a.94.94,0,0,1-.93.94h0A.94.94,0,0,1,134.77,362.31Zm0-4.71h0a.93.93,0,0,1,.93-.93h0a.92.92,0,0,1,.94.93h0a.93.93,0,0,1-.93.93h0A.94.94,0,0,1,134.74,357.6Zm.93-3.78a.93.93,0,0,1-.93-.93h0a.94.94,0,0,1,.94-.93h0a.93.93,0,0,1,.93.93h0a.93.93,0,0,1-.93.92h0Zm0-4.7a.93.93,0,0,1-.92-.94h0a.93.93,0,0,1,.94-.93h0a.94.94,0,0,1,.92.94h0a.93.93,0,0,1-.93.93h0Zm.06-4.71a.93.93,0,0,1-.92-1h0a.93.93,0,0,1,.95-.91h0a.93.93,0,0,1,.92.94h0a.94.94,0,0,1-.94.92h0Zm.09-4.71a.92.92,0,0,1-.9-.95h0a.93.93,0,0,1,1-.91h0a.93.93,0,0,1,.91,1h0a.93.93,0,0,1-.93.9h0Zm-1.39-5.25h0a.94.94,0,0,1,.59-1.18h0a.94.94,0,0,1,1.18.6h0a.93.93,0,0,1-.59,1.17h0a.77.77,0,0,1-.29,0h0A.94.94,0,0,1,134.46,334.45Zm-1.56-4.4a.93.93,0,0,1,.55-1.2h0a.93.93,0,0,1,1.2.54h0a.93.93,0,0,1-.55,1.2h0a.87.87,0,0,1-.32.06h0A.94.94,0,0,1,132.9,330.05Zm-1.69-4.37h0a.94.94,0,0,1,.51-1.22h0a.94.94,0,0,1,1.22.52h0a.93.93,0,0,1-.52,1.21h0a.84.84,0,0,1-.35.07h0A.92.92,0,0,1,131.21,325.68Zm-1.79-4.35h0a.94.94,0,0,1,.5-1.22h0a.93.93,0,0,1,1.22.5h0a.93.93,0,0,1-.5,1.22h0a.94.94,0,0,1-.36.08h0A.94.94,0,0,1,129.42,321.33ZM127.58,317h0a.94.94,0,0,1,.49-1.23h0a1,1,0,0,1,1.23.49h0a.93.93,0,0,1-.48,1.23h0a1,1,0,0,1-.37.07h0A.94.94,0,0,1,127.58,317Zm-1.86-4.32a.93.93,0,0,1,.48-1.23h0a.93.93,0,0,1,1.23.48h0a.94.94,0,0,1-.49,1.23h0a1,1,0,0,1-.37.08h0A.92.92,0,0,1,125.72,312.69Zm-1.87-4.33h0a1,1,0,0,1,.49-1.23h0a.94.94,0,0,1,1.23.49h0a1,1,0,0,1-.49,1.23h0a.94.94,0,0,1-.37.07h0A.92.92,0,0,1,123.85,308.36ZM122,304a.93.93,0,0,1,.5-1.22h0a.93.93,0,0,1,1.22.5h0a1,1,0,0,1-.5,1.23h0a.92.92,0,0,1-.36.07h0A.94.94,0,0,1,122,304Zm-1.8-4.37a.93.93,0,0,1,.52-1.21h0a.93.93,0,0,1,1.21.51h0a.94.94,0,0,1-.52,1.22h0a1,1,0,0,1-.35.06h0A.92.92,0,0,1,120.2,299.65Zm-1.72-4.41A.94.94,0,0,1,119,294h0a.93.93,0,0,1,1.2.55h0a.92.92,0,0,1-.55,1.19h0a.87.87,0,0,1-.32.06h0A.94.94,0,0,1,118.48,295.24Zm-1.58-4.47a.93.93,0,0,1,.59-1.18h0a.92.92,0,0,1,1.18.59h0a.94.94,0,0,1-.59,1.18h0a1,1,0,0,1-.3,0h0A.92.92,0,0,1,116.9,290.77Zm-1.38-4.56a.94.94,0,0,1,.66-1.15h0a.93.93,0,0,1,1.14.66h0a.94.94,0,0,1-.66,1.15h0l-.24,0h0A.94.94,0,0,1,115.52,286.21Zm-1-4.68a.93.93,0,0,1,.76-1.08h0a.94.94,0,0,1,1.08.76h0a1,1,0,0,1-.77,1.08h-.15A.93.93,0,0,1,114.48,281.53Zm.49-3.91a.93.93,0,0,1-.92-.94h0a.92.92,0,0,1,.94-.92h0a.92.92,0,0,1,.92.94h0a.93.93,0,0,1-.93.92h0Z" style="fill:#fff"></path><path d="M115.78,273a.92.92,0,0,1-.36-.07,1,1,0,0,1-.3-.2,1,1,0,0,1-.27-.66.94.94,0,0,1,.27-.66,1,1,0,0,1,1.32,0,.94.94,0,0,1,.27.66.92.92,0,0,1-.07.36.92.92,0,0,1-.5.5A.92.92,0,0,1,115.78,273Z" style="fill:#fff"></path><path d="M127.25,172.37a186.74,186.74,0,0,0-39.59,11.87A13.9,13.9,0,0,0,81,203.32c15,29.39,22.55,67.8,24.93,73.77,0,0,40.23,1,61.49-9.89a19.24,19.24,0,0,0,9.87-21.72c-8.46-34-28.13-58.13-37.24-68.55A13.86,13.86,0,0,0,127.25,172.37Z" style="fill:#fff"></path><path d="M176.74,248.32c2.61,1.88,3.47,9.74,3.47,9.74s-1.58,7.18-15.62,13.94c-15.76,7.59-46.15,8.8-59.11,7.78-1.34-1.73-1.42-5.32-1.42-5.32s33.64-2.81,56.09-13.44C173.27,254.82,176.74,248.32,176.74,248.32Z" style="fill:#407BFF"></path><path d="M176.74,248.32c2.61,1.88,3.47,9.74,3.47,9.74s-1.58,7.18-15.62,13.94c-15.76,7.59-46.15,8.8-59.11,7.78-1.34-1.73-1.42-5.32-1.42-5.32s33.64-2.81,56.09-13.44C173.27,254.82,176.74,248.32,176.74,248.32Z" style="fill:#fff;opacity:0.2"></path><path d="M118,174.22c9.6,8,36.86,25.24,44.92,79.67,10.52,1.1,19.81.85,21.62-5.57-3.66-2.73-24.49-46.25-29.41-56.1S135.68,170.85,128.89,171a66.32,66.32,0,0,0-10.3,1.09A1.19,1.19,0,0,0,118,174.22Z" style="fill:#263238"></path><path d="M108.39,278.68c35.58-4.75,51-8.34,70.35-21.29C157,276.46,130.52,279,108.39,278.68Z" style="fill:#407BFF"></path><path d="M153.49,267.61c12.67-3.42,20.19-9.35,23-11.81C171,258.75,153.49,267.61,153.49,267.61Z" style="fill:#407BFF"></path><path d="M86.39,183.63a69.92,69.92,0,0,0,7.27-5.57,3.47,3.47,0,0,1,4.3-.19c6.49,4.71,23.83,19.44,33.74,37.61,11.87,21.76,14,39,12,44.85-9,14.48-31.91,28.38-50.77,26.07,4.93-3.14,1.37-36.35-2.41-47.14S67.58,194.68,86.39,183.63Z" style="fill:#263238"></path><path d="M98.13,132.71c-9.66,2.81-34.43,2.43-34.43,2.43s-5.3,5.93-1.12,23.09c6,7.36,16.62,12.48,16.62,12.48Z" style="fill:#263238"></path><path d="M102.35,166.83c20.27-11.14,32.22-33.3,32.22-33.3S112,85.76,80,120.13C57.09,144.66,60.46,181.2,60.46,181.2S84,176.91,102.35,166.83Z" style="fill:#263238"></path><path d="M69,179.76h0a.47.47,0,0,1-.46-.48c.28-11.55,2.8-33.29,16.54-49.06,6.39-7.33,12.83-11,19.16-11,11.79,0,21.09,12.61,25.58,20.13l.67,1.13a.47.47,0,0,1-.16.64.46.46,0,0,1-.64-.17l-.67-1.12c-4.39-7.35-13.45-19.68-24.78-19.68-6,0-12.26,3.61-18.46,10.72-13.55,15.55-16,37-16.31,48.47A.46.46,0,0,1,69,179.76Z" style="fill:#407BFF"></path><path d="M80,120.13c32-34.37,54.62,13.4,54.62,13.4s-1,1.78-2.8,4.59c-6.78-11.36-25.44-35.89-48.5-9.43-14.38,16.5-16.92,39-17.12,51.28-3.53.84-5.69,1.23-5.69,1.23S57.09,144.66,80,120.13Z" style="fill:#407BFF"></path><path d="M126.22,192c-23.4-.09-41.72-12.08-41.72-12.08s8.91-7.47,17.84-10.94a36,36,0,0,1,21.44,1.29S131.39,183.65,126.22,192Z" style="fill:#407BFF"></path><path d="M125.6,190.28c4.62,2.81,16.43,10.87,21.23,16.22,3.45,12.17.1,16.12.1,16.12S130.54,196,125.6,190.28Z" style="fill:#407BFF"></path><path d="M125.88,190.13c-.48,4.18.52,17.59,3.54,25.88,8.56,9.69,17.09,10,17.09,10S128.51,196.88,125.88,190.13Z" style="fill:#407BFF"></path><path d="M129,194.28c.95-1.48,1.44-5.77-2.29-6.14s-7.53,1.56-4.13,4C124.92,193.76,129,194.28,129,194.28Z" style="fill:#407BFF"></path><path d="M123.1,179a9.24,9.24,0,0,0-5-3.39,10.1,10.1,0,0,1-1.48-5.9l-21.45-2.58c3.27,7,5.84,12.51,4.21,16.63,4.5,1.78,12.9,5.5,20.48,2.93C125.6,184.68,125.07,181.75,123.1,179Z" style="fill:#b55b52"></path><path d="M116.58,170.39l-17-2.77c4.28,8.29,13.41,9.46,18.08,7.19A10.11,10.11,0,0,1,116.58,170.39Z" style="opacity:0.2"></path><path d="M86.64,163.35c7.75,10.46,19.41,1.18,24.44,9,3,4.62,22.73-3.2,21.28-9.33-2.77-11.71-13.23-28.08-26.93-27.49C89.83,136.24,78.89,152.89,86.64,163.35Z" style="fill:#407BFF"></path><path d="M86.64,163.35c7.75,10.46,19.41,1.18,24.44,9,3,4.62,22.73-3.2,21.28-9.33-2.77-11.71-13.23-28.08-26.93-27.49C89.83,136.24,78.89,152.89,86.64,163.35Z" style="fill:#fff;opacity:0.8"></path><path d="M107.8,161c-1.07,0-2.28-1.25-4-2.07-1.1-.54-2.91-.44-4.18-1.6-1.52-1.38-1.65-3.3-2.24-4.45-1-2-1.86-3.54-1.42-4.69s2.19-1.57,3.49-2.21c1.1-.54,2.21-1.86,3.73-1.86,1.1,0,2,1.22,3.09,1.53s2.56-.17,3.42.44c1.88,1.32,2.32,3.44,3.06,4.85,1.08,2,2.14,3.92,1.66,5.44-.42,1.32-2.07,1.78-3.17,2.52s-2,2.1-3.48,2.1v0Z" style="fill:#407BFF;opacity:0.5"></path><path d="M109.75,149.34c-4.34-3.06-13.55-.92-5.9,6S117.51,154.81,109.75,149.34Z" style="fill:#263238"></path><path d="M112.81,137.75h0a2,2,0,0,0-1.73,1c-.88,1.59.34,3.31,1,4.82.78,1.76,1.28,3.75,1.89,4.45,1.09,1.27,2.81,1.58,3.92,2.32,1.42.95,2.57,2.3,3.91,2.3,1,0,1.65-1.13,2.41-1.64h0a2.57,2.57,0,0,0,.79-3.67,33.11,33.11,0,0,0-8.78-8.62A6.39,6.39,0,0,0,112.81,137.75Z" style="fill:#407BFF;opacity:0.5"></path><path d="M119.78,142.92c-3.64-3.37-10.48-3-4,4.5S126.3,148.93,119.78,142.92Z" style="fill:#263238"></path><path d="M109.35,154.22a1.41,1.41,0,1,0,.71-2A1.53,1.53,0,0,0,109.35,154.22Z" style="fill:#fff"></path><path d="M121.23,148.71a1.51,1.51,0,1,0-1.68-.9A1.37,1.37,0,0,0,121.23,148.71Z" style="fill:#fff"></path><path d="M134.88,403.33l9.54,0a2.81,2.81,0,0,1,2.56,1.6c2,4.31,10.1,6,12.65,6.66a4.17,4.17,0,0,1,3.15,3.85,4.91,4.91,0,0,1-.07,1H134a2.27,2.27,0,0,1-2.27-2.35c.08-2.73.22-4.34.32-8A2.85,2.85,0,0,1,134.88,403.33Z" style="fill:#263238"></path><path d="M224.84,106.74a1.69,1.69,0,0,0-1.08,1.33,12.35,12.35,0,0,1-3.82,6.27c-7.15,6.49-21.18,13.79-36,20.39q-10.32,4.59-21,8.19l-38.1,12.81,1,3,38.09-12.8q10.71-3.6,21.75-6.18c15.82-3.69,31.45-6.36,41.06-5.48a14.68,14.68,0,0,1,7,2.82,1.49,1.49,0,0,0,1.4.27c2.58-.87.29-7.69-2.56-16.16S227.56,105.83,224.84,106.74Z" style="fill:#407BFF"></path><path d="M225.56,107.68c-1.38.46.82,6.79,3.47,14.67s4.79,14.24,6.1,13.8-.82-6.79-3.47-14.68S226.94,107.22,225.56,107.68Z" style="opacity:0.30000000000000004"></path><path d="M127.08,156.62c.6,1.78.29,3.49-.69,3.82s-2.27-.84-2.86-2.63-.29-3.49.69-3.82S126.49,154.83,127.08,156.62Z" style="fill:#407BFF"></path><path d="M144.55,167.21a8.26,8.26,0,0,1-2.64-16.09l55.55-18.67a8.26,8.26,0,0,1,5.26,15.66h0l-55.55,18.67A8.13,8.13,0,0,1,144.55,167.21Zm55.53-33.16a6.07,6.07,0,0,0-2,.32L142.56,153a6.23,6.23,0,0,0,4,11.82l55.55-18.67a6.24,6.24,0,0,0,3.92-7.9,6.29,6.29,0,0,0-5.92-4.24Zm2.32,13.1h0Z" style="fill:#407BFF"></path><rect x="154.15" y="139.81" width="2.48" height="5.48" rx="0.4" transform="translate(-37.32 56.93) rotate(-18.58)" style="fill:#263238"></rect><rect x="156.46" y="142.38" width="5.41" height="22.81" rx="1.24" transform="translate(-40.7 58.72) rotate(-18.58)" style="fill:#407BFF"></rect><path d="M157.08,139.92l-4.63,1.56a.72.72,0,0,1-.9-.45h0a.73.73,0,0,1,.45-.91l4.63-1.55a.71.71,0,0,1,.9.45h0A.72.72,0,0,1,157.08,139.92Z" style="fill:#407BFF"></path><rect x="164.4" y="136.36" width="2.48" height="5.48" rx="0.4" transform="matrix(0.95, -0.32, 0.32, 0.95, -35.69, 60.02)" style="fill:#263238"></rect><rect x="166.71" y="138.94" width="5.41" height="22.81" rx="1.24" transform="translate(-39.07 61.8) rotate(-18.58)" style="fill:#407BFF"></rect><path d="M167.33,136.48,162.7,138a.71.71,0,0,1-.9-.45h0a.71.71,0,0,1,.45-.9l4.62-1.55a.71.71,0,0,1,.91.44h0A.73.73,0,0,1,167.33,136.48Z" style="fill:#407BFF"></path><rect x="174.65" y="132.92" width="2.48" height="5.48" rx="0.4" transform="translate(-34.06 63.11) rotate(-18.58)" style="fill:#263238"></rect><rect x="176.96" y="135.49" width="5.41" height="22.81" rx="1.24" transform="translate(-37.43 64.88) rotate(-18.57)" style="fill:#407BFF"></rect><path d="M177.58,133,173,134.59a.72.72,0,0,1-.9-.45h0a.71.71,0,0,1,.45-.9l4.62-1.56a.73.73,0,0,1,.91.45h0A.72.72,0,0,1,177.58,133Z" style="fill:#407BFF"></path><path d="M156.38,153.93l-2-11.83,14.3,1.65s.53,10.93-5.23,12.16Z" style="fill:#b55b52"></path><path d="M161.48,131.87l4.92,1.42a4.17,4.17,0,0,1,3,4.49l-.71,6-14.3-1.65,1.95-7.3A4.15,4.15,0,0,1,161.48,131.87Z" style="fill:#b55b52"></path><path d="M95.05,187.82c.31.07.83.15,1.26.23l1.39.21c.93.15,1.88.25,2.83.37,1.89.23,3.8.38,5.71.53,3.82.25,7.64.38,11.43.3,1.88-.05,3.76-.12,5.63-.23s3.69-.32,5.5-.55a61.26,61.26,0,0,0,10.28-2.13L133.93,190a39.05,39.05,0,0,0,3-4.41c1-1.67,2-3.45,2.93-5.28,1.92-3.66,3.62-7.56,5.29-11.5s3.16-8,4.55-12.12c.7-2.05,1.35-4.12,2-6.19s1.25-4.21,1.71-6.19l24.45,9.17-6.24,12.41-3.09,6.16c-1,2.06-2.07,4.11-3.14,6.16-2.09,4.13-4.31,8.22-6.64,12.39-1.18,2.08-2.42,4.16-3.78,6.27a71.81,71.81,0,0,1-4.63,6.51l-.06.07a10.31,10.31,0,0,1-5.09,3.38,104.93,104.93,0,0,1-13.48,2.87c-2.2.32-4.39.58-6.56.8s-4.34.42-6.49.58c-4.31.27-8.59.5-12.86.59-2.14.07-4.28.08-6.43.12H94.5c-.57,0-1.06,0-1.76,0Z" style="fill:#263238"></path><path d="M121.29,164.31l-.13,0a.32.32,0,0,1-.17-.41,6.68,6.68,0,0,0,0-5.69,5.08,5.08,0,0,0-3.58-2.57.32.32,0,0,1-.25-.37.32.32,0,0,1,.37-.25,5.7,5.7,0,0,1,4,2.89,7.31,7.31,0,0,1,.09,6.23A.31.31,0,0,1,121.29,164.31Z" style="fill:#407BFF;opacity:0.5"></path><path d="M108.51,141.32c.82.75,1.25,1.63.94,2s-1.22,0-2-.75-1.25-1.64-1-2S107.68,140.57,108.51,141.32Z" style="fill:#407BFF;opacity:0.5"></path><path d="M102.65,138.16c.85.26,1.45.74,1.35,1.08s-.87.42-1.72.17-1.46-.74-1.36-1.09S101.8,137.91,102.65,138.16Z" style="fill:#407BFF;opacity:0.5"></path><path d="M91.79,148.14c.95-.59,1.91-.76,2.15-.38s-.34,1.17-1.29,1.76-1.9.76-2.14.38S90.84,148.73,91.79,148.14Z" style="fill:#407BFF;opacity:0.5"></path><path d="M93.57,156.27c.65,0,1.19.29,1.22.74s-.48.85-1.12.89-1.19-.3-1.22-.75S92.93,156.3,93.57,156.27Z" style="fill:#407BFF;opacity:0.5"></path><path d="M90.8,155.66c.24-.49.71-.75,1-.58a.87.87,0,0,1,.18,1.18c-.24.49-.71.75-1,.58S90.56,156.15,90.8,155.66Z" style="fill:#407BFF;opacity:0.5"></path><path d="M89.06,157.33c0-.41.21-.75.5-.76s.53.32.54.73-.21.75-.5.76S89.07,157.74,89.06,157.33Z" style="fill:#407BFF;opacity:0.5"></path><path d="M118.65,164c-.25.6-.78.95-1.2.78s-.56-.8-.31-1.4.78-.94,1.2-.77S118.89,163.41,118.65,164Z" style="fill:#407BFF;opacity:0.5"></path><path d="M120.39,161.76c.34.43.37,1,.07,1.2s-.81.08-1.15-.35a.88.88,0,0,1-.07-1.19C119.54,161.18,120.05,161.34,120.39,161.76Z" style="fill:#407BFF;opacity:0.5"></path><path d="M119.64,159.48c.37.16.58.51.47.77s-.52.34-.9.18-.58-.52-.46-.78S119.26,159.31,119.64,159.48Z" style="fill:#407BFF;opacity:0.5"></path><path d="M132.36,163.07c-.08-.31-.15-.62-.24-.92-.89-.32-3,.09-4.58,1.54-2.13,1.92-3.06,3.53-1.55,5.34a2.74,2.74,0,0,0,1.44.66C130.65,167.7,132.88,165.28,132.36,163.07Z" style="fill:#407BFF;opacity:0.5"></path><path d="M112.49,168.76c-.55-.56-.83-1.18-.62-1.38s.82.09,1.36.66.83,1.18.62,1.38S113,169.32,112.49,168.76Z" style="fill:#407BFF;opacity:0.5"></path><path d="M92.28,145.57c.89.09,1.57.44,1.54.8s-.78.58-1.66.49-1.57-.44-1.54-.8S91.4,145.49,92.28,145.57Z" style="fill:#407BFF;opacity:0.5"></path><path d="M94.23,144.25c.49.52.74,1.08.55,1.26s-.73-.09-1.23-.61-.73-1.07-.55-1.25S93.74,143.74,94.23,144.25Z" style="fill:#407BFF;opacity:0.5"></path><path d="M113.84,171.12a.3.3,0,0,1-.29-.21.32.32,0,0,1,.19-.4,1.62,1.62,0,0,0,1.05-1.66c-.07-1.47-1.76-3.44-6.28-4.55-2.26-.55-5.35-.38-8.33-.22-5.13.28-10.43.58-12.41-2.66a5,5,0,0,1,1.44-6.71,4.42,4.42,0,0,1,6.15.48,2.45,2.45,0,0,1,.38,2.95,2.38,2.38,0,0,1-2.85.86.32.32,0,0,1-.21-.39.32.32,0,0,1,.39-.21,1.79,1.79,0,0,0,2.14-.59,1.82,1.82,0,0,0-.32-2.2,3.78,3.78,0,0,0-5.3-.4,4.36,4.36,0,0,0-1.28,5.88c1.78,2.92,6.89,2.64,11.83,2.36,3-.16,6.16-.33,8.52.24,6.12,1.49,6.72,4.31,6.75,5.13a2.22,2.22,0,0,1-1.46,2.29Z" style="fill:#407BFF;opacity:0.5"></path></g><g id="freepik--character-2--inject-78"><polygon points="277.18 398.59 269.74 395.16 277.02 377.56 284.47 381 277.18 398.59" style="fill:#ff8b7b"></polygon><path d="M270.5,392.13l8.23,3.52a.69.69,0,0,1,.4.78l-1.72,7.21a1.25,1.25,0,0,1-1.72.85c-2.95-1.32-7.15-3.33-10.89-4.92-4.36-1.87-4-1.51-9.12-3.7-3.09-1.33-2.46-4.76-1-4.49,6.52,1.26,7.15,1.45,13.75.55A3.93,3.93,0,0,1,270.5,392.13Z" style="fill:#263238"></path><polygon points="277.02 377.57 273.27 386.64 280.71 390.07 284.47 381 277.02 377.57" style="opacity:0.2"></polygon><path d="M313.72,312.86c21.31-37.42,30.85-56.18,31.14-77.29l-28.46-5.21s-19.74,53.05-24.27,77.32c-4.71,25.24-19.46,73.38-19.46,73.38l12.57,4.05S310.49,341.64,313.72,312.86Z" style="fill:#263238"></path><path d="M323.21,296c6.7-12.2,11.75-22.16,15.27-31.08C327.1,249.87,324.87,279,323.21,296Z" style="opacity:0.2"></path><polygon points="272 377.14 270.97 382.82 284.43 388.32 286.9 383.54 272 377.14" style="fill:#407BFF"></polygon><polygon points="354.38 390.36 355.02 409.39 345.92 409.26 345.27 390.23 354.38 390.36" style="fill:#ff8b7b"></polygon><path d="M346.13,406.78l8.95.14a.62.62,0,0,1,.63.57l.78,7.32a1.33,1.33,0,0,1-1.35,1.44c-3.22-.11-4.23-.37-8.29-.43-4.74-.08-4.58.12-10.14,0-3.36-.05-3.9-3.46-2.46-3.76a20.31,20.31,0,0,0,9.84-4.7A2.87,2.87,0,0,1,346.13,406.78Z" style="fill:#263238"></path><polygon points="354.38 390.36 354.71 400.17 345.61 400.04 345.27 390.23 354.38 390.36" style="opacity:0.2"></polygon><path d="M343.29,403.65Z" style="fill:#407BFF"></path><path d="M355.38,318.33c2.59-29.34,9.76-58.1,7.36-79.74l-29.75-5s-4.29,60.65-1,85.65c3.4,26,11.11,74.89,11.11,74.89l13.23.18S358.89,347.06,355.38,318.33Z" style="fill:#263238"></path><path d="M355,239.78c-.16,17.09-2.84,50.53-6.07,71.11a42.55,42.55,0,0,0-.37,10c1.79,22.89,3.4,72.69,3.4,72.69h2.73s-.32-50.31-2.55-71.58a42.57,42.57,0,0,1,.41-12c9.86-55.23,8.12-70.76,8.12-70.76Z" style="fill:#407BFF;opacity:0.5"></path><polygon points="341.15 391.2 342.02 396.86 356.85 397.12 357.69 391.77 341.15 391.2" style="fill:#407BFF"></polygon><path d="M372.13,161.09a131.42,131.42,0,0,0-31.34-7.59c-6-.58-8.38,4.25-11,9.64-2.78,5.71-4.47,16-5.13,21.64-2.65,14.16-5.49,37.83-8.87,45.88,9.35,6.19,29.75,9,47.49,8.51,8.57-35.49,15.31-54.44,16.21-66.31A11.73,11.73,0,0,0,372.13,161.09Z" style="fill:#fff"></path><path d="M379.77,168.64C378.6,159.27,359,156.9,359,156.9l-3,9.84c-4.9,9.1-2.6,50.9,12.85,59.92C371.49,213.08,380.94,178,379.77,168.64Z" style="fill:#263238"></path><path d="M361.31,165.05l2.23-7.32a45.89,45.89,0,0,0-4.53-.83l-3,9.84c-4.9,9.1-2.6,50.9,12.85,59.93.29-1.52.66-3.28,1.1-5.26C358.32,208,356.89,173.25,361.31,165.05Z" style="fill:#407BFF;opacity:0.5"></path><path d="M363.59,106.17c8.65.71,29.54-3.86,29.54-3.86s5.5,4.11,4.9,19.34c-3.8,7.24-11.91,13.4-11.91,13.4Z" style="fill:#263238"></path><path d="M362,139.36c-17-10.43-26.41-30-26.41-30S357,69.09,383.22,100c18.7,22.08,14.3,53.44,14.3,53.44S377.41,148.8,362,139.36Z" style="fill:#263238"></path><path d="M383.22,100C357,69.1,335.6,109.34,335.6,109.34s.76,1.58,2.22,4.07c6.31-9.51,23.39-29.89,42.19-6.14,11.72,14.81,13,34.29,12.66,44.9,3,.86,4.86,1.28,4.86,1.28S401.92,122.1,383.22,100Z" style="fill:#407BFF"></path><path d="M329.85,159c5.25-8.47,19.89-4.76,19.89-4.76l-5.33,9.61c-6.51,13.9-6.51,35.71-26.53,51.73C320.25,201.64,324.22,168.06,329.85,159Z" style="fill:#263238"></path><path d="M283.77,188.31l-8.18-1.42,1.11,9.89s7.56.39,8.42-3.59Z" style="fill:#ff8b7b"></path><path d="M268.5,191.8l1,3.4a2.87,2.87,0,0,0,3.1,2.06l4.13-.48-1.11-9.89-5.06,1.33A2.87,2.87,0,0,0,268.5,191.8Z" style="fill:#ff8b7b"></path><path d="M342.15,168l-5.86,7.06-5.8,7.07-5.88,7.06c-2,2.34-4,4.7-6.14,7h0a6.43,6.43,0,0,1-3.31,1.93c-3.2.74-6.15,1.22-9.12,1.66s-5.87.84-8.78,1.18l-8.7,1.1c-2.91.38-5.76.73-8.74,1.17l-.56-16.19c2.73.22,5.59.27,8.39.3s5.62-.05,8.41-.17,5.56-.31,8.28-.62a70.27,70.27,0,0,0,7.79-1.22l-3.32,1.94a173.1,173.1,0,0,0,11.13-13.51c1.8-2.35,3.51-4.77,5.22-7.2s3.37-4.91,4.91-7.39Z" style="fill:#263238"></path><path d="M345.62,153.57l-3.82,6.88c-6.08,13-6.47,32.92-22.89,48.55-.36,2.48-.72,4.7-1,6.57,20-16,20-37.83,26.52-51.73l5.33-9.61A31.47,31.47,0,0,0,345.62,153.57Z" style="fill:#407BFF;opacity:0.5"></path><path d="M343.51,150.53c-1.12,3.15-2.43,13.71,3,22.11,4-1.5,19.62-6.49,24.43-15.9C367.88,154.13,351.91,150.23,343.51,150.53Z" style="fill:#407BFF"></path><path d="M347.27,170.67a.22.22,0,0,1-.19-.12c-4.38-7.92-2.78-16.62-2.42-18.28a.23.23,0,0,1,.22-.17h0c7.9.1,19.63,3.08,23.69,5a.23.23,0,0,1,.12.15.19.19,0,0,1,0,.18c-4.87,7.25-16.81,11.56-21.31,13.18Zm-2.21-18.12c-.41,2-1.73,10.13,2.32,17.61,4.54-1.64,15.94-5.82,20.76-12.72C364,155.51,352.75,152.69,345.06,152.55Z" style="fill:#fff"></path><path d="M362.54,142.42c-1.06,6.07-2,13.19,1,17.79-2.81,3.54-8.88,6-14.8,7-3.35-4.72-2.55-8.88-.68-11.19,3.58-2.13,3.35-5.84,3.43-8.4Z" style="fill:#ff8b7b"></path><path d="M359.91,144.72c.08-.38.14-.77.2-1.15l-8.57,4.06a14.77,14.77,0,0,1-.69,5.24C354.83,151.71,359.2,148.37,359.91,144.72Z" style="opacity:0.2"></path><path d="M374.83,136.24c-4.4,9.51-15.11,4.1-17.78,11.11-1.57,4.13-18.44,1.21-18.29-3.86.27-9.68,5.83-24.29,16.72-26.07C367.88,115.39,379.23,126.73,374.83,136.24Z" style="fill:#407BFF"></path><path d="M374.83,136.24c-4.4,9.51-15.11,4.1-17.78,11.11-1.57,4.13-18.44,1.21-18.29-3.86.27-9.68,5.83-24.29,16.72-26.07C367.88,115.39,379.23,126.73,374.83,136.24Z" style="fill:#fff;opacity:0.8"></path><path d="M315.74,231.91c5.06,3.2,22.81,10.09,47.54,8.93a.89.89,0,0,0,.72-.41c1.21-2,2.24-7.5,2.64-9.86a.88.88,0,0,0-.93-1c-4,.28-18,1-31.41-1.14a157.39,157.39,0,0,1-16.62-3.31.88.88,0,0,0-1,.49,21.16,21.16,0,0,0-1.3,5.46A.86.86,0,0,0,315.74,231.91Z" style="fill:#407BFF"></path><path d="M318,226.66c13.13,3.23,31.88,6,46.81,4.5C345.83,233.94,327.37,230.34,318,226.66Z" style="opacity:0.2"></path><path d="M317.81,228.19c12.91,4,31.47,7.91,46.46,7.3C345.16,237.13,327,232.42,317.81,228.19Z" style="opacity:0.2"></path><path d="M317.88,232c13.55,2.61,30.75,5.24,46.33,5.45A96.56,96.56,0,0,1,317.88,232Z" style="opacity:0.2"></path><path d="M346.92,172.38c-2.57,1.42-9,5.62-11.39,8.68-.64,7.61,2,10.47,2,10.47S344.51,175.63,346.92,172.38Z" style="fill:#407BFF"></path><path d="M347,172.38c1.39,2.68,4.51,10,4.8,14.13-3.73,7.44-7.57,8.73-7.57,8.73S347.2,176.69,347,172.38Z" style="fill:#407BFF"></path><path d="M346,174.81c-.77-.83-1.88-3.32-.17-3.65s3.93.68,2.8,2.18A5.39,5.39,0,0,1,346,174.81Z" style="fill:#407BFF"></path><g style="opacity:0.5"><path d="M350.17,124.77c-.82,1.11-2.07,1.56-2.79,1s-.65-1.87.18-3,2.07-1.56,2.79-1S351,123.67,350.17,124.77Z" style="fill:#407BFF"></path><path d="M349.83,127.09c-1,.95-2.31,1.18-2.93.52s-.32-2,.68-2.89,2.31-1.18,2.93-.52S350.83,126.15,349.83,127.09Z" style="fill:#407BFF"></path><path d="M348.8,129.39c-1,.94-2.31,1.18-2.93.52s-.31-2,.69-2.9,2.31-1.17,2.93-.52S349.8,128.45,348.8,129.39Z" style="fill:#407BFF"></path><path d="M348.49,125.35c-.43,1.24-1.44,2-2.25,1.72s-1.12-1.52-.69-2.75,1.45-2,2.26-1.72S348.92,124.11,348.49,125.35Z" style="fill:#407BFF"></path><path d="M347.3,126.78c-.43,1.23-1.44,2-2.25,1.72s-1.12-1.52-.68-2.76,1.44-2,2.25-1.72S347.74,125.54,347.3,126.78Z" style="fill:#407BFF"></path><path d="M345.53,128.29c.07,1-.36,1.77-.95,1.78s-1.12-.76-1.18-1.73.36-1.78.94-1.79S345.46,127.32,345.53,128.29Z" style="fill:#407BFF"></path><path d="M344.66,129.79c.29.62.22,1.26-.17,1.42s-.93-.22-1.23-.84-.22-1.26.17-1.43S344.36,129.16,344.66,129.79Z" style="fill:#407BFF"></path></g><g style="opacity:0.5"><path d="M364.15,127.82a2.64,2.64,0,1,1-2.64-2.63A2.64,2.64,0,0,1,364.15,127.82Z" style="fill:#407BFF"></path><path d="M363.59,131.22a2.43,2.43,0,1,1-2.43-2.43A2.42,2.42,0,0,1,363.59,131.22Z" style="fill:#407BFF"></path><path d="M361.16,127.7a2.43,2.43,0,1,1-2.43-2.43A2.43,2.43,0,0,1,361.16,127.7Z" style="fill:#407BFF"></path><circle cx="358.73" cy="133.99" r="2.17" style="fill:#407BFF"></circle><circle cx="356.72" cy="128.62" r="2.17" style="fill:#407BFF"></circle><circle cx="355.24" cy="130.45" r="2.17" style="fill:#407BFF"></circle><circle cx="355.71" cy="135.2" r="1.75" style="fill:#407BFF"></circle></g><g style="opacity:0.5"><path d="M342.74,141.77h-.13a.79.79,0,0,1-.56-.4,2.4,2.4,0,0,1,.07-1.94c.37-1,1.17-1.95,1.93-1.82a.78.78,0,0,1,.56.4,2.44,2.44,0,0,1-.07,1.94h0C344.19,140.86,343.46,141.77,342.74,141.77Zm1.17-3.55c-.28,0-.86.52-1.2,1.42a1.84,1.84,0,0,0-.11,1.41c0,.08.09.09.11.09.27,0,.89-.49,1.24-1.42h0a1.94,1.94,0,0,0,.11-1.41c-.05-.08-.09-.09-.11-.09Z" style="fill:#407BFF"></path><path d="M344.79,142.46h-.12a.81.81,0,0,1-.57-.39,2.48,2.48,0,0,1,0-1.95c.36-1,1.15-2,1.91-1.85a.78.78,0,0,1,.56.39,2.4,2.4,0,0,1,0,1.95h0C346.24,141.53,345.51,142.46,344.79,142.46Zm1.14-3.58c-.29,0-.87.54-1.19,1.45a1.83,1.83,0,0,0-.09,1.4c0,.08.09.09.11.09.28.05.88-.5,1.22-1.43h0a1.87,1.87,0,0,0,.09-1.4c-.05-.08-.09-.09-.11-.09Z" style="fill:#407BFF"></path><path d="M346.74,142.79h-.12a.81.81,0,0,1-.57-.39,2.48,2.48,0,0,1,0-1.95c.36-1,1.16-2,1.91-1.85a.8.8,0,0,1,.56.39,2.4,2.4,0,0,1,0,2C348.19,141.86,347.46,142.79,346.74,142.79Zm1.14-3.58c-.29,0-.87.54-1.19,1.44a1.85,1.85,0,0,0-.09,1.41c0,.09.09.09.11.09.28,0,.88-.5,1.22-1.43a1.9,1.9,0,0,0,.09-1.41c0-.08-.09-.09-.11-.09Z" style="fill:#407BFF"></path><path d="M349.06,143.19a.77.77,0,0,1-.55-.24,2.29,2.29,0,0,1-.39-1.8c.11-1,.62-2.05,1.35-2.12a.8.8,0,0,1,.62.24,2.31,2.31,0,0,1,.39,1.8c-.11,1-.62,2.06-1.35,2.12Zm.48-3.53h0c-.25,0-.68.64-.78,1.56a1.83,1.83,0,0,0,.22,1.29c.06.06.1.06.11.05.25,0,.68-.64.79-1.56a1.78,1.78,0,0,0-.23-1.29A.1.1,0,0,0,349.54,139.66Z" style="fill:#407BFF"></path><path d="M351.09,143.34a.73.73,0,0,1-.54-.24,2.27,2.27,0,0,1-.42-1.79c.09-1,.59-2.06,1.32-2.14a.78.78,0,0,1,.62.23,2.27,2.27,0,0,1,.42,1.79h0c-.1,1-.59,2.07-1.32,2.15Zm.43-3.54h0c-.25,0-.67.65-.76,1.57a1.81,1.81,0,0,0,.24,1.29c.06.06.1.05.11.05.25,0,.67-.65.76-1.58h0a1.74,1.74,0,0,0-.24-1.28A.12.12,0,0,0,351.52,139.8Z" style="fill:#407BFF"></path><path d="M353,143.18a.8.8,0,0,1-.55-.23,2.27,2.27,0,0,1-.42-1.79c.1-1,.59-2.07,1.32-2.14a.77.77,0,0,1,.62.23,2.27,2.27,0,0,1,.42,1.79h0c-.09,1-.59,2.07-1.32,2.14Zm.43-3.54h0c-.25,0-.67.66-.76,1.58a1.74,1.74,0,0,0,.24,1.28c0,.06.09.06.11.05.25,0,.67-.65.76-1.57h0a1.79,1.79,0,0,0-.24-1.28C353.43,139.65,353.4,139.64,353.38,139.64Z" style="fill:#407BFF"></path></g><path d="M351.24,141.39a23,23,0,0,1-8.92-1.65.45.45,0,0,1-.22-.6.45.45,0,0,1,.59-.22,23.57,23.57,0,0,0,11.24,1.42.46.46,0,0,1,.49.4.45.45,0,0,1-.4.5A27.19,27.19,0,0,1,351.24,141.39Z" style="fill:#263238"></path><path d="M366.26,127.24c-.52-.64,5.81-1.63,5.53-.54S366.67,127.74,366.26,127.24Z" style="fill:#407BFF;opacity:0.5"></path><path d="M366.23,128.38c-.19-.57,4.43.37,3.95,1S366.39,128.83,366.23,128.38Z" style="fill:#407BFF;opacity:0.5"></path><path d="M366.15,125.43c-.45-.29,2-2.42,2.26-1.65S366.5,125.66,366.15,125.43Z" style="fill:#407BFF;opacity:0.5"></path><path d="M367,137.28c1,.1,3-.1,3.21-.62s-2.32-.25-3.35.13c.6-.68,1.48-2.2,1.14-2.55s-1.52,1.77-1.65,2.59c-.35-.64-1.68-1.81-2.16-1.47s1.36,1.78,2,1.85c-.7.43-2.44,2.35-2.17,2.85s2.16-1.88,2.42-2.68c.26.79,1.7,2.72,2.26,2.46S367.84,137.9,367,137.28Zm-.56-.15Z" style="fill:#407BFF;opacity:0.5"></path><path d="M365.75,129.76c-.05-.48,3.38,1.07,2.89,1.51S365.79,130.14,365.75,129.76Z" style="fill:#407BFF;opacity:0.5"></path><path d="M354.77,121.7c-.6-.09,2.35-3.77,2.73-3S355.24,121.77,354.77,121.7Z" style="fill:#407BFF;opacity:0.5"></path><path d="M356,122.24c-.41-.24,2.85-2.11,2.92-1.45S356.29,122.43,356,122.24Z" style="fill:#407BFF;opacity:0.5"></path><path d="M351.92,137.19c-.33.35-1.39-3.26-.74-3.18S352.18,136.91,351.92,137.19Z" style="fill:#407BFF;opacity:0.5"></path><path d="M343.74,133.14c-.3-.32,3.41-.84,3.24-.3S344,133.38,343.74,133.14Z" style="fill:#407BFF;opacity:0.5"></path><path d="M353.75,121.62c-.42.08.63-3.08,1.07-2.69S354.08,121.55,353.75,121.62Z" style="fill:#407BFF;opacity:0.5"></path><path d="M354.83,146.79a1.76,1.76,0,0,1-1.45.94c-.54,0-.77-.45-.5-1a1.76,1.76,0,0,1,1.45-.94C354.87,145.82,355.1,146.26,354.83,146.79Z" style="fill:#407BFF;opacity:0.5"></path><path d="M351,146.53a1.12,1.12,0,0,1-.67.89c-.33.11-.56-.11-.52-.48a1.15,1.15,0,0,1,.68-.89C350.85,145.94,351.08,146.16,351,146.53Z" style="fill:#407BFF;opacity:0.5"></path><path d="M369.67,138a.41.41,0,0,1-.37.44.4.4,0,0,1-.44-.36.43.43,0,0,1,.37-.45A.4.4,0,0,1,369.67,138Z" style="fill:#407BFF;opacity:0.5"></path><path d="M366.78,139.46a.41.41,0,0,1-.36.45.4.4,0,0,1-.44-.37.4.4,0,0,1,.36-.44A.4.4,0,0,1,366.78,139.46Z" style="fill:#407BFF;opacity:0.5"></path><path d="M364.72,137.49a.41.41,0,0,1-.37.45.4.4,0,0,1-.44-.36.41.41,0,0,1,.37-.45A.4.4,0,0,1,364.72,137.49Z" style="fill:#407BFF;opacity:0.5"></path><path d="M366.56,135a.42.42,0,0,1-.37.45.4.4,0,0,1-.44-.37.41.41,0,0,1,.37-.44A.4.4,0,0,1,366.56,135Z" style="fill:#407BFF;opacity:0.5"></path><path d="M369.26,135.42a.4.4,0,0,1-.36.44.39.39,0,0,1-.44-.36.42.42,0,0,1,.36-.45A.4.4,0,0,1,369.26,135.42Z" style="fill:#407BFF;opacity:0.5"></path><path d="M340.14,141.65a3.13,3.13,0,0,1-.1,1.73c-.19.42-.45.34-.58-.19a3.13,3.13,0,0,1,.1-1.73C339.75,141,340,141.12,340.14,141.65Z" style="fill:#407BFF;opacity:0.5"></path><path d="M341.7,143.65a1.28,1.28,0,0,1,0,1c-.14.25-.35.22-.49-.07a1.19,1.19,0,0,1,0-1C341.34,143.33,341.56,143.36,341.7,143.65Z" style="fill:#407BFF;opacity:0.5"></path><path d="M354.32,129c2.93-3.12,10.53-2.94,5.65,3.8S349.1,134.56,354.32,129Z" style="fill:#263238"></path><path d="M344.76,125.87c1.86-3.53,7.15-5.07,4.27,2.33S341.43,132.18,344.76,125.87Z" style="fill:#263238"></path><ellipse cx="357.5" cy="130.65" rx="1.12" ry="1.06" style="fill:#fff"></ellipse><ellipse cx="347.87" cy="126.92" rx="1.12" ry="1.06" style="fill:#fff"></ellipse><path d="M347.7,133.31c-7.25,2.81-1,1.87-1,1.87,0,1.35,1.77,3,2.1,1a4.84,4.84,0,0,0-.21-2.52A.7.7,0,0,0,347.7,133.31Z" style="fill:#263238"></path><path d="M383,219.5a25,25,0,0,0-10.88-4.87,27.19,27.19,0,0,1-15.49-8.3A24,24,0,0,0,351,201.8a22,22,0,0,0-3.1-1.49h0l-7.34-2.81,10.94,72.32,5.63,2.08a23.26,23.26,0,0,0,3.62,1.35l.07,0h0c11.69,3.27,24.55-2.67,30.54-15.57C397.53,244.4,393.9,227.9,383,219.5Z" style="fill:#407BFF"></path><path d="M383,219.5a25,25,0,0,0-10.88-4.87,27.19,27.19,0,0,1-15.49-8.3A24,24,0,0,0,351,201.8a22,22,0,0,0-3.1-1.49h0l-7.34-2.81,10.94,72.32,5.63,2.08a23.26,23.26,0,0,0,3.62,1.35l.07,0h0c11.69,3.27,24.55-2.67,30.54-15.57C397.53,244.4,393.9,227.9,383,219.5Z" style="opacity:0.30000000000000004"></path><path d="M306.49,231a33.22,33.22,0,0,1-.65-12.72l.89.13a32.4,32.4,0,0,0,.63,12.37Z" style="fill:#407BFF"></path><path d="M310.44,240.15a30.51,30.51,0,0,1-2.78-5.5l.84-.33a29.07,29.07,0,0,0,2.7,5.34Z" style="fill:#407BFF"></path><path d="M375.59,216.67a24.86,24.86,0,0,0-10.88-4.86,27.2,27.2,0,0,1-15.49-8.31,23.89,23.89,0,0,0-5.63-4.53c-10.44-6.06-23.62-2.41-30.49,8.45-8.1,12.8-4.8,30.24,6.88,38.11a22.69,22.69,0,0,0,5.13,2.59c5.48,1.91,10.05,6,13.44,11.17a27.56,27.56,0,0,0,7.62,7.79c13.14,8.86,30.52,3.45,37.79-12.21C390.13,241.57,386.51,225.07,375.59,216.67Z" style="fill:#407BFF"></path><ellipse cx="332.46" cy="222.67" rx="15.15" ry="13.54" transform="translate(92.09 542.57) rotate(-86.89)" style="fill:#fff;opacity:0.2"></ellipse><path d="M325.36,236a.38.38,0,0,1-.17,0,.36.36,0,0,1-.14-.48l14.2-26a.35.35,0,0,1,.62.34l-14.19,26A.36.36,0,0,1,325.36,236Z" style="fill:#407BFF"></path><path d="M344,230.81a.36.36,0,0,1-.2-.06l-23.07-15.56a.36.36,0,1,1,.4-.59l23.06,15.56a.35.35,0,0,1,.1.49A.36.36,0,0,1,344,230.81Z" style="fill:#407BFF"></path><path d="M335.6,237.72a.35.35,0,0,1-.35-.28L329,208.06a.35.35,0,0,1,.27-.42.35.35,0,0,1,.42.27L336,237.29a.35.35,0,0,1-.28.42Z" style="fill:#407BFF"></path><path d="M319.29,226.72a.35.35,0,0,1-.34-.26.35.35,0,0,1,.24-.44l26.35-7.38a.36.36,0,0,1,.19.69l-26.35,7.37Z" style="fill:#407BFF"></path><ellipse cx="332.46" cy="222.67" rx="10.62" ry="9.49" transform="translate(92.08 542.57) rotate(-86.89)" style="fill:#263238"></ellipse><polygon points="313.95 218.53 264.04 182.69 268.97 173.67 320.61 206.34 313.95 218.53" style="fill:#407BFF"></polygon><polygon points="313.95 218.53 264.04 182.69 268.97 173.67 320.61 206.34 313.95 218.53" style="opacity:0.30000000000000004"></polygon><polygon points="245.01 173.7 263.31 184.04 269.7 172.33 253.01 159.06 245.01 173.7" style="fill:#407BFF"></polygon><path d="M259.32,167.11h0a1.16,1.16,0,0,0,.35,1.42l.2.13a.9.9,0,0,0,1.29-.31h0a1.14,1.14,0,0,0-.28-1.54l-.2-.13A.93.93,0,0,0,259.32,167.11Z" style="fill:#fff"></path><path d="M264.72,171.16h0a1.16,1.16,0,0,0,.35,1.42l.2.13a.9.9,0,0,0,1.29-.31h0a1.15,1.15,0,0,0-.28-1.54l-.2-.13A.93.93,0,0,0,264.72,171.16Z" style="fill:#fff"></path><path d="M253.92,163.06h0a1.16,1.16,0,0,0,.35,1.42l.2.13a.9.9,0,0,0,1.29-.31h0a1.14,1.14,0,0,0-.28-1.54l-.2-.13A.93.93,0,0,0,253.92,163.06Z" style="fill:#fff"></path><path d="M254.35,176.21h0a.91.91,0,0,1,1.29-.31l.2.13a1.14,1.14,0,0,1,.35,1.42h0a.92.92,0,0,1-1.36.44l-.2-.14A1.16,1.16,0,0,1,254.35,176.21Z" style="fill:#fff"></path><path d="M260.08,179.66h0a.91.91,0,0,1,1.29-.31l.2.14a1.16,1.16,0,0,1,.35,1.42h0a.93.93,0,0,1-1.36.43l-.2-.14A1.14,1.14,0,0,1,260.08,179.66Z" style="fill:#fff"></path><path d="M248.63,172.76h0a.9.9,0,0,1,1.29-.31l.2.13a1.16,1.16,0,0,1,.35,1.42h0a.93.93,0,0,1-1.36.43l-.2-.13A1.14,1.14,0,0,1,248.63,172.76Z" style="fill:#fff"></path><polygon points="262.84 159.34 260.81 163.45 263.4 165.19 265.75 161.3 262.84 159.34" style="fill:#263238"></polygon><polygon points="268.2 163.84 266.18 167.95 268.77 169.69 271.12 165.81 268.2 163.84" style="fill:#263238"></polygon><polygon points="257.47 154.83 255.45 158.94 258.03 160.69 260.38 156.8 257.47 154.83" style="fill:#263238"></polygon><polygon points="249.77 183.26 252.12 179.37 254.7 181.12 252.68 185.22 249.77 183.26" style="fill:#263238"></polygon><polygon points="255.84 186.48 258.19 182.59 260.77 184.33 258.75 188.44 255.84 186.48" style="fill:#263238"></polygon><polygon points="243.69 180.05 246.04 176.16 248.63 177.9 246.61 182.01 243.69 180.05" style="fill:#263238"></polygon><polygon points="360.31 254.21 355.96 251.28 366.14 232.64 370.49 235.57 360.31 254.21" style="fill:#263238"></polygon><path d="M357.53,221.63l-7.4,3.75,6.8,7.27s6.3-4.21,4.6-7.92Z" style="fill:#ff8b7b"></path><path d="M347.38,233.56l2.81,2.14a2.88,2.88,0,0,0,3.72-.19l3-2.86-6.8-7.27-3.26,4.1A2.87,2.87,0,0,0,347.38,233.56Z" style="fill:#ff8b7b"></path><path d="M379.54,167.46c.43.88.74,1.59,1.09,2.37l1,2.28c.64,1.53,1.29,3,1.89,4.58q1.85,4.59,3.37,9.38c.52,1.59,1,3.22,1.4,4.88s.83,3.34,1.14,5.08a41.62,41.62,0,0,1,.65,11.21,6.31,6.31,0,0,1-1.47,3.51l0,0c-2.12,2.49-4.19,4.64-6.31,6.77s-4.2,4.19-6.33,6.21l-6.31,6.08c-2.11,2-4.18,4-6.31,6.17l-10.14-12.65c2.33-1.45,4.65-3.12,6.91-4.77s4.47-3.4,6.64-5.17S371,209.85,373,208a67.63,67.63,0,0,0,5.52-5.64l-1.5,3.54a25.08,25.08,0,0,0-.52-7.4,53.75,53.75,0,0,0-2.32-8.1,82.82,82.82,0,0,0-3.44-8.05c-.66-1.31-1.32-2.63-2-3.91-.36-.64-.72-1.28-1.09-1.9s-.78-1.29-1.1-1.77Z" style="fill:#263238"></path><g style="clip-path:url(#freepik--clip-path--inject-78)"><polygon points="360.89 99.91 370.92 90.97 373.72 103.72 382.42 99.71 380.84 112.22 389.72 111.52 385.82 123.4 395.13 124.83 388.62 135.41 397.33 139.68 389.32 146.74 397.53 153.45 385.52 156.9 337.82 113.42 337.82 106.32 345.83 107.72 345.83 97.01 352.3 101.31 354.9 90.97 360.89 99.91" style="fill:#fff;opacity:0.30000000000000004"></polygon></g></g><g id="freepik--Graphics--inject-78"><path d="M258.69,106c3.1-6.92,1-16.32,1-16.32s14.16,2.42,14.66,5.56a6.78,6.78,0,0,1-2.2,3.76l-9.74-5.3s.95,9.84-4.9,18C245.64,112.1,244.59,103.65,258.69,106Z" style="fill:#407BFF"></path><path d="M184.8,99.61c-1.14-4.45-5.7-8.12-5.7-8.12s7.64-4.2,9.07-2.9a4.07,4.07,0,0,1,.37,2.62l-6.63,1.16a17.76,17.76,0,0,1,4.47,10.41C180.9,107.44,177.21,103.82,184.8,99.61Z" style="fill:#407BFF"></path><path d="M263,282.53c-1.14-4.46-5.7-8.12-5.7-8.12s7.64-4.2,9.07-2.9a4.13,4.13,0,0,1,.37,2.62l-6.63,1.16a17.76,17.76,0,0,1,4.47,10.41C259.06,290.36,255.36,286.74,263,282.53Z" style="fill:#407BFF"></path><path d="M74.1,312.31c-1.24-4.82-6.18-8.79-6.18-8.79s8.27-4.54,9.82-3.13a4.46,4.46,0,0,1,.4,2.83L71,304.48a19.17,19.17,0,0,1,4.83,11.25C69.87,320.78,65.88,316.86,74.1,312.31Z" style="fill:#407BFF"></path><path d="M438.49,103.67c-1.14-4.46-5.71-8.13-5.71-8.13s7.65-4.19,9.08-2.89a4.13,4.13,0,0,1,.37,2.62l-6.63,1.16a17.71,17.71,0,0,1,4.46,10.4C434.58,111.5,430.89,107.87,438.49,103.67Z" style="fill:#407BFF"></path><path d="M250.56,223.6c.44-3.64,4.12-5.83,4.92-1.5,1.87-.45,8.7,3.7,1.69,5.32s-13.78,10.66-15.81,13.47.75,6.45-2.63,6.78-3-3.46-3-3.46-6.15-2.23-3.22-4.41,4.62-.26,7.68-3.63S250,227.93,250.56,223.6Z" style="fill:#407BFF"></path><path d="M119.42,94.51c2.18-.23,3.94,1.61,1.53,2.66.51,1-1,5.55-2.86,1.69s-8-6.58-10-7.39-3.65,1.3-4.29-.62,1.6-2.24,1.6-2.24.47-3.87,2.13-2.46.78,2.65,3.14,4S116.83,94.78,119.42,94.51Z" style="fill:#407BFF"></path><polygon points="289.61 142.42 295.82 138.06 294.68 145.51 289.61 142.42" style="fill:#407BFF"></polygon><polygon points="52.33 268.25 58.55 263.89 57.41 271.34 52.33 268.25" style="fill:#407BFF"></polygon><polygon points="411.63 285.98 417.85 281.61 416.71 289.06 411.63 285.98" style="fill:#407BFF"></polygon><polygon points="223.54 292.24 229.75 287.88 228.61 295.33 223.54 292.24" style="fill:#407BFF"></polygon><polygon points="205.67 214.47 203.49 208 208.16 209.62 205.67 214.47" style="fill:#407BFF"></polygon><polygon points="410.61 190.12 408.43 183.65 413.1 185.27 410.61 190.12" style="fill:#407BFF"></polygon><polygon points="220.57 68.55 218.39 62.08 223.06 63.7 220.57 68.55" style="fill:#407BFF"></polygon></g></svg>