<svg id="Capa_1" enable-background="new 0 0 512 512" height="512" viewBox="0 0 512 512" width="512" xmlns="http://www.w3.org/2000/svg"><g><g><path d="m414.765 493.076v-65.625c0-67.62-54.817-122.438-122.438-122.438h-72.654c-67.62 0-122.438 54.817-122.438 122.438v65.625l158.761 9z" fill="#9ec8fc"/><path d="m296.767 305.013s1.869 48.637-40.77 48.637-40.77-48.637-40.77-48.637z" fill="#e2ae84"/><path d="m387.249 191.259c1.096-18.851.975-35.993-.211-51.569h-262.083c-1.187 15.577-1.307 32.718-.211 51.569z" fill="#26457d"/><path d="m121.444 198.772c0 12.567 8.321 33.779 23.333 33.779l12.111-10.315 15.129-11.566-15.39-35.395c-1.126-.116-2.269-.176-3.426-.176-15.012 0-27.684 9.985-31.757 23.673z" fill="#e2ae84"/><path d="m153.201 222.445c-15.011 0-27.684-9.985-31.756-23.673-.892 2.999-1.379 6.173-1.379 9.462 0 18.3 14.835 33.135 33.135 33.135 2.315 0 4.574-.239 6.755-.691l7.149-9.467-10.217-8.976c-1.211.135-2.44.21-3.687.21z" fill="#d7a379"/><path d="m390.556 198.772c0 12.567-8.321 33.779-23.333 33.779l-12.111-10.315-15.129-11.566 15.39-35.395c1.126-.116 2.269-.176 3.426-.176 15.011 0 27.684 9.985 31.757 23.673z" fill="#e2ae84"/><path d="m358.799 222.445c15.011 0 27.684-9.985 31.756-23.673.892 2.999 1.379 6.173 1.379 9.462 0 18.3-14.835 33.135-33.135 33.135-2.315 0-4.574-.239-6.755-.691l-7.149-9.467 10.217-8.976c1.211.135 2.44.21 3.687.21z" fill="#d7a379"/><path d="m322.691 139.69-66.691-9-66.691 9c-18.928 31.165-32.677 35.585-32.682 35.585v28.55 4.409c0 54.882 44.491 97.241 99.373 97.241 54.882 0 99.373-42.358 99.373-97.241v-4.409-28.55s-13.753-4.418-32.682-35.585z" fill="#f0c69e"/><path d="m256 295.551c-54.882 0-99.373-44.491-99.373-99.373v18.924c0 54.882 44.491 99.373 99.373 99.373 54.882 0 99.373-44.49 99.373-99.373v-18.924c0 54.882-44.491 99.373-99.373 99.373z" fill="#e6ba94"/><path d="m102.492 512h49.584l7.885-9 7.885 9h176.309l7.885-9 7.885 9h49.584c2.903 0 5.257-2.353 5.257-5.257v-13.667h-317.531v13.667c0 2.904 2.354 5.257 5.257 5.257z" fill="#80b6fc"/><g fill="#6eaaf3"><path d="m167.846 442.591v50.485l-7.885 9-7.885-9v-50.485c0-4.363 3.522-7.885 7.885-7.885 4.352 0 7.885 3.522 7.885 7.885z"/><path d="m359.924 442.591v50.485l-7.885 9-7.885-9v-50.485c0-4.363 3.533-7.885 7.885-7.885 4.363 0 7.885 3.522 7.885 7.885z"/></g><g fill="#5d9ee6"><path d="m152.076 493.076h15.77v18.924h-15.77z"/><path d="m344.154 493.076h15.77v18.924h-15.77z"/></g><path d="m391.692 120.765c-11.923-92.996-75.256-120.765-135.695-120.765s-123.772 27.769-135.695 120.765l135.695 9z" fill="#dc4955"/><path d="m120.299 120.766c-.551 4.295-.994 8.727-1.321 13.303-.217 3.037 2.203 5.621 5.248 5.621h89.519l42.251-9 42.258 9h89.512c3.045 0 5.465-2.584 5.248-5.621-.327-4.576-.77-9.008-1.321-13.303z" fill="#d82f3c"/><path d="m298.255 110.614-42.258 9-42.251-9v-2.648c0-23.337 18.918-42.255 42.255-42.255 23.337 0 42.255 18.918 42.255 42.255v2.648z" fill="#26457d"/><path d="m298.255 120.766-42.255 9-42.255-9v-10.152h84.51z" fill="#f6e080"/><path d="m213.745 120.766h84.509v18.924h-84.509z" fill="#eccd61"/></g><g><path d="m207.754 176.512c-4.364 0-7.9 3.537-7.9 7.9v22.322c0 4.363 3.537 7.9 7.9 7.9 4.364 0 7.9-3.537 7.9-7.9v-22.322c0-4.363-3.536-7.9-7.9-7.9z" fill="#5e6b75"/><path d="m304.246 214.634c4.364 0 7.9-3.537 7.9-7.9v-22.322c0-4.363-3.537-7.9-7.9-7.9-4.364 0-7.9 3.537-7.9 7.9v22.322c0 4.363 3.536 7.9 7.9 7.9z" fill="#5e6b75"/><path d="m285.066 249.666c1.657-4.027-.263-8.636-4.29-10.294-4.028-1.658-8.637.262-10.295 4.29-.027.066-3.058 6.655-14.427 6.655s-14.4-6.589-14.427-6.655c-1.658-4.027-6.267-5.947-10.295-4.29-4.027 1.658-5.947 6.267-4.29 10.294 2.512 6.099 11.448 16.422 29.012 16.422s26.5-10.323 29.012-16.422z" fill="#dc4955"/></g></g></svg>